<?xml version="1.0" standalone="no"?>
<!DOCTYPE svg PUBLIC "-//W3C//DTD SVG 20010904//EN"
 "http://www.w3.org/TR/2001/REC-SVG-20010904/DTD/svg10.dtd">
<svg version="1.0" xmlns="http://www.w3.org/2000/svg"
 width="1024.000000pt" height="1024.000000pt" viewBox="0 0 1024.000000 1024.000000"
 preserveAspectRatio="xMidYMid meet">

<g transform="translate(0.000000,1024.000000) scale(0.100000,-0.100000)"
fill="#000000" stroke="none">
<path d="M0 5120 l0 -5120 5120 0 5120 0 0 5120 0 5120 -5120 0 -5120 0 0
-5120z m3510 3825 c7 -9 10 -27 7 -43 -4 -15 -49 -236 -101 -492 -52 -256
-124 -610 -160 -786 -36 -177 -66 -332 -65 -345 l0 -24 9 23 c5 12 14 22 21
22 6 0 9 -7 5 -15 -3 -8 -1 -15 4 -15 6 0 10 9 10 20 0 11 -5 20 -12 20 -9 0
-9 3 -1 11 12 12 36 3 28 -11 -3 -5 5 -14 17 -20 19 -9 21 -9 8 2 -14 12 -16
19 -12 56 1 7 7 10 14 6 7 -5 8 -3 3 5 -8 14 33 63 46 55 5 -3 7 1 4 8 -3 7
50 73 119 149 73 81 128 149 134 170 6 19 25 117 42 219 42 258 38 242 62 229
20 -11 20 -17 14 -157 -4 -81 -10 -160 -13 -177 -7 -34 -18 -44 275 228 88 81
167 147 176 147 33 0 16 -47 -46 -121 -88 -106 -294 -345 -347 -404 -25 -28
-61 -69 -80 -90 -19 -22 -55 -63 -80 -90 -25 -28 -77 -86 -116 -130 -118 -134
-149 -165 -162 -165 -7 0 -13 -4 -13 -10 0 -5 -7 -7 -15 -4 -11 5 -15 -1 -16
-22 -1 -17 -3 -22 -6 -11 -2 9 -11 17 -19 17 -9 0 -12 -5 -8 -11 3 -6 -5 -3
-20 6 -15 10 -29 16 -31 13 -8 -8 -25 -142 -25 -202 0 -32 7 -85 16 -119 33
-127 161 -345 317 -539 73 -91 195 -214 203 -205 2 2 -7 24 -21 49 -52 93 -90
319 -110 650 -6 99 -6 107 13 117 28 15 36 1 56 -104 60 -307 107 -447 196
-582 84 -128 152 -186 307 -262 71 -34 158 -77 196 -95 37 -18 67 -30 67 -27
0 4 -25 72 -54 152 -78 209 -82 237 -67 497 7 119 15 225 17 235 8 25 43 22
49 -5 2 -13 6 -117 7 -233 3 -198 4 -213 28 -265 32 -72 111 -206 170 -289
219 -307 270 -381 270 -389 0 -5 -33 -21 -72 -35 -130 -44 -119 -46 -173 34
-27 38 -64 84 -84 100 -96 79 -489 249 -976 422 -457 162 -547 201 -654 280
-179 132 -350 326 -432 488 -57 113 -125 269 -169 386 -50 131 -54 163 -22
163 14 0 52 -63 152 -247 152 -283 193 -348 287 -454 154 -171 320 -292 518
-374 39 -16 87 -39 108 -53 40 -24 58 -25 35 -1 -7 8 -24 28 -36 44 -13 17
-156 163 -318 326 l-296 296 -5 349 c-3 192 -2 460 2 597 7 229 9 247 25 247
24 0 27 -13 35 -135 7 -106 28 -402 45 -625 6 -74 16 -182 21 -240 11 -104 12
-106 62 -175 67 -92 113 -145 103 -120 -30 79 -17 164 116 772 l31 143 -35 77
c-62 134 -84 219 -102 398 -21 201 -6 204 74 14 58 -138 119 -264 125 -258 3
5 246 787 271 874 23 83 29 90 54 60z m3270 -6 c6 -11 65 -197 130 -414 113
-371 154 -503 163 -512 4 -4 124 252 153 327 34 89 54 93 54 11 0 -136 -60
-393 -121 -512 l-28 -57 29 -138 c16 -77 41 -193 55 -259 51 -241 77 -409 73
-471 l-4 -60 41 55 c101 140 97 132 116 279 9 75 22 205 29 287 6 83 22 269
33 415 21 255 23 265 43 268 22 3 22 1 29 -283 4 -157 5 -302 2 -323 -4 -20
-7 -158 -7 -306 l-1 -268 -47 -52 c-39 -43 -495 -509 -586 -598 -34 -34 -29
-46 11 -24 15 8 73 34 128 58 163 69 303 164 429 293 147 150 177 194 366 539
123 223 151 260 167 220 16 -42 -184 -502 -279 -643 -82 -121 -241 -288 -348
-365 -112 -80 -209 -128 -400 -196 -58 -21 -177 -63 -265 -95 -442 -158 -849
-334 -967 -420 -25 -19 -69 -67 -98 -108 l-51 -74 -80 29 c-44 15 -89 33 -100
38 -19 11 -19 11 3 41 102 136 367 527 398 588 50 99 53 117 59 351 6 220 7
225 27 228 27 4 29 -9 45 -273 9 -138 9 -207 1 -251 -13 -78 -78 -251 -140
-376 -4 -8 129 49 263 112 124 59 193 108 257 182 131 152 195 310 258 648 21
110 32 140 51 140 25 0 28 -45 14 -236 -18 -261 -68 -501 -116 -563 -37 -46
-9 -33 61 29 38 34 70 65 70 69 0 3 15 22 33 41 18 19 55 64 82 100 27 36 52
67 55 70 15 14 88 135 135 224 72 136 99 241 89 344 -4 42 -7 85 -5 95 1 9 -2
17 -7 17 -5 0 -7 13 -4 28 2 19 -1 29 -10 29 -7 0 -21 4 -30 8 -11 4 -18 3
-18 -5 0 -6 6 -8 13 -4 7 4 9 3 4 -2 -5 -5 -18 -9 -30 -9 -12 -1 -28 -4 -35
-8 -7 -5 -14 -2 -18 7 -3 9 -9 14 -13 12 -3 -2 -12 2 -19 10 -7 8 -10 14 -7
14 3 0 -13 17 -35 39 -22 21 -40 41 -40 43 0 2 -25 31 -56 64 -30 32 -92 101
-137 153 -45 52 -104 119 -132 150 -27 31 -99 114 -160 185 -60 71 -145 169
-187 219 -78 91 -90 115 -65 136 11 9 45 -18 162 -127 81 -75 181 -168 222
-206 l74 -69 -3 188 c-2 139 0 189 9 192 16 6 28 -42 64 -257 16 -102 34 -200
39 -217 5 -20 50 -79 117 -151 108 -118 230 -254 264 -295 10 -12 18 -17 19
-12 0 11 -84 425 -240 1178 -49 241 -90 451 -90 466 0 45 22 55 40 20z m-1422
-67 c2 -14 -2 -22 -11 -22 -17 0 -26 19 -19 38 7 19 27 9 30 -16z m-433 -2 c0
-8 -8 -16 -17 -18 -13 -2 -18 3 -18 18 0 15 5 20 18 18 9 -2 17 -10 17 -18z
m271 -224 c28 -28 34 -42 34 -76 0 -106 -147 -142 -196 -48 -38 74 9 157 90
158 30 0 45 -7 72 -34z m-1266 -31 c-10 -12 -16 -13 -26 -4 -8 6 -14 17 -14
24 0 19 23 25 39 9 12 -11 12 -16 1 -29z m2429 36 c17 -11 5 -51 -15 -51 -17
0 -28 24 -20 45 6 17 15 19 35 6z m-1409 -341 c0 -5 -4 -10 -10 -10 -5 0 -10
5 -10 10 0 6 5 10 10 10 6 0 10 -4 10 -10z m370 0 c0 -5 -4 -10 -10 -10 -5 0
-10 5 -10 10 0 6 5 10 10 10 6 0 10 -4 10 -10z m-166 -136 c43 -42 -10 -109
-54 -69 -24 22 -25 42 -3 67 20 22 37 23 57 2z m1916 -984 c0 -5 -7 -7 -15 -4
-8 4 -15 8 -15 10 0 2 7 4 15 4 8 0 15 -4 15 -10z m-51 -20 c13 6 17 4 18 -12
1 -12 8 -25 15 -29 9 -6 6 -8 -9 -7 -11 1 -19 7 -16 14 2 7 -1 15 -8 20 -8 4
-10 3 -5 -4 4 -7 3 -12 -3 -12 -6 0 -16 10 -22 23 -9 18 -9 20 1 10 8 -8 19
-9 29 -3z m-1859 -650 c0 -5 -2 -10 -4 -10 -3 0 -8 5 -11 10 -3 6 -1 10 4 10
6 0 11 -4 11 -10z m-70 -120 c0 -5 -4 -10 -10 -10 -5 0 -10 5 -10 10 0 6 5 10
10 10 6 0 10 -4 10 -10z m-262 -222 c-6 -18 -28 -21 -28 -4 0 9 7 16 16 16 9
0 14 -5 12 -12z m624 -3 c0 -5 -5 -11 -11 -13 -6 -2 -11 4 -11 13 0 9 5 15 11
13 6 -2 11 -8 11 -13z m-450 -97 c-15 -15 -26 -4 -18 18 5 13 9 15 18 6 9 -9
9 -15 0 -24z m273 12 c0 -7 -6 -15 -12 -17 -8 -3 -13 4 -13 17 0 13 5 20 13
18 6 -3 12 -11 12 -18z m-1744 -229 c4 -3 13 -43 22 -88 l14 -83 -356 -1
c-567 -2 -667 -6 -663 -24 1 -8 176 -304 388 -657 483 -805 522 -871 789
-1323 120 -203 246 -417 280 -475 34 -58 90 -154 125 -215 35 -60 104 -177
153 -260 49 -82 124 -211 167 -285 130 -228 641 -1098 665 -1133 13 -18 14
-18 28 5 20 31 112 188 287 488 259 443 283 485 310 530 15 25 46 79 70 120
24 41 53 91 65 110 12 19 40 67 62 105 85 148 594 1016 663 1130 40 66 101
167 135 225 195 331 328 553 638 1070 190 316 343 578 341 582 -3 5 -235 8
-516 8 l-510 0 5 23 c3 12 11 52 18 90 l13 67 261 0 c144 0 445 3 668 7 316 5
407 4 407 -6 0 -7 -46 -87 -101 -179 -155 -255 -1260 -2100 -1394 -2327 -65
-110 -166 -281 -225 -380 -58 -99 -139 -236 -180 -305 -40 -69 -132 -224 -203
-345 -71 -121 -137 -233 -147 -250 -9 -16 -49 -84 -87 -150 -160 -273 -512
-885 -547 -947 -20 -37 -40 -69 -44 -72 -5 -3 -44 57 -87 132 -171 297 -331
572 -395 682 -38 63 -191 324 -340 580 -150 256 -287 490 -305 520 -18 30
-108 183 -200 340 -232 396 -1061 1779 -1431 2391 -96 158 -177 294 -180 303
-5 14 59 15 663 9 367 -3 671 -8 674 -12z m518 -330 c31 -35 55 -70 55 -77 -1
-8 3 -14 10 -14 18 0 100 -107 101 -132 0 -17 5 -22 18 -20 12 2 21 -4 24 -17
3 -12 9 -21 13 -21 15 0 30 -58 17 -64 -7 -2 -2 -5 10 -5 12 -1 24 -5 27 -10
4 -5 -2 -8 -11 -6 -25 4 -42 -12 -36 -35 7 -27 -11 -26 -94 5 -125 48 -228
133 -277 231 -27 54 -96 318 -96 367 0 28 3 26 92 -54 50 -46 116 -113 147
-148z m2206 151 c-44 -43 -83 -77 -86 -75 -4 2 -10 -4 -13 -13 -3 -8 -11 -12
-16 -9 -6 4 -9 3 -8 -2 5 -16 -55 -84 -65 -74 -13 13 -41 -15 -33 -34 3 -8 1
-15 -4 -15 -14 0 -12 54 3 69 8 9 8 12 0 7 -6 -3 -14 0 -16 6 -3 7 -6 4 -6 -7
-1 -13 -8 -21 -21 -22 -11 -1 -18 2 -15 8 4 5 1 9 -5 9 -7 0 -10 7 -6 15 3 8
1 15 -4 15 -6 0 -10 -11 -10 -25 0 -14 5 -25 10 -25 6 0 10 -8 10 -17 1 -17 1
-17 11 0 13 23 29 13 29 -19 0 -13 5 -24 11 -24 5 0 7 -5 3 -12 -5 -8 -11 -5
-18 11 -6 15 -16 21 -28 18 -10 -3 -18 0 -18 6 0 7 -5 19 -10 27 -9 13 -11 13
-20 0 -7 -12 -9 -10 -7 7 0 12 5 19 9 17 4 -3 8 3 8 13 0 35 19 43 63 27 29
-10 44 -11 51 -3 7 6 7 10 1 9 -25 -5 -55 1 -55 11 0 6 7 9 15 5 13 -4 13 -2
5 14 -7 12 -7 21 0 25 5 3 10 0 10 -8 0 -8 8 -14 18 -13 10 0 16 -5 14 -14 -3
-12 -1 -13 10 -2 11 11 10 15 -3 25 -9 7 -14 18 -11 25 3 10 8 8 18 -5 13 -17
14 -17 7 2 -5 17 -3 16 15 -5 12 -14 21 -19 22 -12 0 7 4 10 10 7 6 -3 7 1 3
10 -4 12 -8 13 -13 5 -5 -8 -9 -7 -13 5 -4 9 -3 13 3 10 6 -3 10 2 10 11 0 16
1 16 16 -2 8 -10 13 -14 11 -9 -7 15 20 48 32 40 6 -3 11 -2 11 4 0 9 68 37
83 33 4 -1 7 3 7 9 0 5 4 8 9 4 5 -3 12 -1 16 5 3 5 11 10 18 10 6 0 -24 -35
-68 -78z m-2251 35 c-1 -10 2 -17 7 -17 5 0 9 8 9 18 0 10 3 13 8 6 4 -6 21
-16 37 -21 17 -6 29 -16 27 -23 -2 -7 5 -9 18 -5 12 4 20 2 20 -5 0 -6 5 -8
10 -5 6 3 10 1 10 -4 0 -6 9 -11 20 -11 12 0 31 -10 44 -23 13 -13 29 -21 35
-19 8 3 6 -6 -5 -24 l-19 -27 28 18 c15 10 31 15 35 11 3 -4 0 -11 -8 -16 -12
-8 -11 -10 6 -10 11 0 29 -8 38 -19 14 -15 15 -23 5 -44 -6 -14 -22 -28 -35
-31 -12 -3 -26 -15 -29 -27 -5 -16 -9 -18 -21 -8 -8 7 -19 20 -24 30 -9 15 -6
17 27 14 22 -2 31 0 23 5 -11 7 -11 11 -1 24 10 11 10 16 2 16 -6 0 -14 -7
-17 -15 -4 -8 -11 -15 -16 -15 -6 0 -7 7 -4 16 5 13 4 14 -7 6 -8 -7 -17 -9
-20 -5 -4 3 -7 1 -7 -5 0 -7 -5 -12 -12 -12 -6 0 -9 3 -5 6 3 3 -8 19 -24 35
-16 15 -29 33 -29 39 0 6 -4 8 -10 5 -5 -3 -10 -2 -10 3 0 11 -129 142 -140
142 -4 0 -10 6 -13 14 -4 11 0 12 21 6 16 -4 26 -13 26 -23z m2440 1 c-16 -96
-57 -264 -75 -313 -47 -127 -154 -220 -318 -276 -55 -19 -106 -26 -66 -9 16 7
17 9 3 9 -9 1 -21 -5 -25 -12 -4 -8 -15 -16 -24 -19 -12 -5 -15 1 -15 28 1 19
4 34 9 34 4 0 7 -5 7 -11 0 -6 7 -4 15 5 8 8 15 22 15 30 0 10 8 15 22 13 18
-1 23 4 25 23 2 23 2 23 -7 5 -8 -18 -9 -17 -7 8 1 24 17 41 17 17 0 -5 7 -10
15 -10 8 0 15 -7 15 -15 0 -8 -4 -15 -9 -15 -5 0 -11 -7 -14 -15 -5 -12 -2
-12 18 -3 27 12 33 43 11 51 -10 4 -14 21 -14 51 1 38 4 44 15 34 18 -15 29
-2 13 17 -8 9 -8 15 -2 15 6 0 14 9 17 20 3 11 13 20 21 20 8 0 13 4 9 9 -7
12 24 43 36 36 5 -4 6 1 3 9 -4 9 1 18 10 22 9 3 16 11 16 18 0 14 244 256
259 256 6 0 8 -12 5 -32z m-523 -243 c5 3 6 -2 2 -11 -6 -16 -7 -16 -19 1 -7
10 -10 23 -6 29 4 7 8 4 10 -7 2 -9 8 -15 13 -12z m-1567 -1 c3 -9 3 -21 -1
-27 -4 -7 1 -6 10 2 11 9 17 10 17 2 0 -6 -4 -11 -8 -11 -5 0 -9 -7 -9 -15 0
-9 6 -14 13 -11 8 3 11 0 8 -8 -3 -8 0 -17 5 -21 6 -3 8 -11 5 -17 -4 -6 0
-14 7 -19 11 -7 10 -9 -3 -9 -10 0 -16 -6 -14 -12 1 -7 1 -10 -1 -5 -3 4 -11
7 -19 7 -7 0 -20 14 -29 30 -9 17 -20 30 -26 30 -6 0 -7 5 -4 11 4 5 -1 20
-12 31 -10 12 -13 18 -6 15 6 -4 14 -1 16 5 3 8 6 6 6 -5 1 -10 6 -15 11 -12
6 4 7 11 4 17 -5 7 -2 8 6 3 9 -5 10 -2 5 14 -7 24 10 29 19 5z m673 -86 l103
-103 104 104 103 103 154 -52 c85 -29 155 -53 156 -54 1 -1 -16 -54 -38 -119
-21 -65 -39 -125 -39 -132 0 -8 38 -56 84 -106 l84 -92 -31 -38 c-31 -37 -57
-50 -57 -29 0 6 -26 10 -57 10 -56 0 -58 -1 -108 -53 -56 -58 -65 -87 -65
-221 l0 -60 28 45 c38 59 63 75 143 93 18 4 31 18 44 46 10 22 23 39 29 37 6
-2 12 -38 14 -85 3 -80 2 -82 -31 -119 -19 -21 -68 -80 -109 -131 l-74 -93 -2
-125 c-1 -133 0 -129 -65 -205 l-38 -44 -37 23 c-20 13 -54 30 -74 39 l-37 16
55 52 c53 50 55 53 48 91 -3 21 -13 51 -21 67 l-14 27 -153 0 -154 0 -16 -40
c-24 -61 -20 -94 15 -134 16 -19 39 -38 50 -41 22 -7 26 -25 5 -25 -8 0 -37
-16 -65 -35 -28 -19 -54 -35 -59 -35 -4 0 -29 22 -55 48 l-47 48 -5 139 -4
138 -64 76 c-113 136 -144 176 -150 194 -9 23 3 157 14 157 4 0 18 -19 31 -42
19 -35 30 -44 63 -50 61 -12 83 -28 117 -80 17 -26 33 -48 35 -48 5 0 -6 162
-13 201 -3 14 -29 49 -58 78 -52 52 -55 53 -102 49 -27 -3 -56 -8 -65 -12 -12
-5 -26 3 -48 26 -17 18 -31 39 -31 46 0 7 39 53 86 102 l86 89 -42 126 c-22
70 -39 129 -36 132 4 4 292 101 306 102 2 1 51 -45 107 -101z m970 43 c3 -20
1 -22 -12 -11 -8 7 -15 8 -15 3 0 -13 -39 -53 -51 -53 -6 0 3 14 20 31 17 17
31 37 31 46 0 23 23 10 27 -16z m-63 -6 c3 -8 1 -15 -3 -15 -5 0 -11 7 -15 15
-3 8 -1 15 3 15 5 0 11 -7 15 -15z m-1644 -5 c0 -5 -4 -10 -10 -10 -5 0 -10 5
-10 10 0 6 5 10 10 10 6 0 10 -4 10 -10z m1624 -60 c30 0 12 -11 -25 -15 -22
-3 -29 -1 -20 4 9 6 12 19 8 37 l-6 29 12 -27 c7 -17 18 -28 31 -28z m-1624
30 c0 -5 -2 -10 -4 -10 -3 0 -8 5 -11 10 -3 6 -1 10 4 10 6 0 11 -4 11 -10z
m1584 -105 c3 -8 1 -15 -4 -15 -6 0 -10 7 -10 15 0 8 2 15 4 15 2 0 6 -7 10
-15z m-2514 -79 c0 -21 -21 -31 -30 -15 -5 7 -6 17 -4 21 9 14 34 9 34 -6z
m3570 -1 c0 -8 -4 -15 -9 -15 -13 0 -22 16 -14 24 11 11 23 6 23 -9z m-2580
-100 c7 -9 8 -15 2 -15 -5 0 -12 7 -16 15 -3 8 -4 15 -2 15 2 0 9 -7 16 -15z
m1547 -7 c-3 -8 -6 -5 -6 6 -1 11 2 17 5 13 3 -3 4 -12 1 -19z m-2259 -45 c-3
-31 -34 -44 -44 -19 -9 24 3 46 26 46 17 0 21 -5 18 -27z m3020 5 c-2 -15 -11
-24 -25 -26 -19 -3 -23 1 -23 22 0 21 5 26 26 26 21 0 25 -4 22 -22z m-3010
-244 c2 -11 -4 -26 -12 -33 -31 -26 -71 14 -45 45 17 21 53 14 57 -12z m3017
-19 c0 -21 -31 -33 -46 -18 -5 5 -7 17 -3 27 9 24 49 17 49 -9z m-2585 5 c0
-5 -4 -10 -10 -10 -5 0 -10 5 -10 10 0 6 5 10 10 10 6 0 10 -4 10 -10z m2218
-62 c-2 -13 -10 -23 -18 -23 -8 0 -16 10 -18 23 -3 17 2 22 18 22 16 0 21 -5
18 -22z m-2293 -53 c0 -30 -39 -27 -43 3 -3 20 0 23 20 20 15 -2 23 -10 23
-23z m-165 -100 c0 -8 -7 -15 -15 -15 -16 0 -20 12 -8 23 11 12 23 8 23 -8z
m2600 -25 c0 -5 -4 -10 -10 -10 -5 0 -10 5 -10 10 0 6 5 10 10 10 6 0 10 -4
10 -10z m230 0 c0 -5 -5 -10 -11 -10 -5 0 -7 5 -4 10 3 6 8 10 11 10 2 0 4 -4
4 -10z m-2872 -219 c8 -4 12 -19 10 -32 -4 -29 -45 -34 -61 -7 -19 30 19 60
51 39z m182 -1 c0 -5 -2 -10 -4 -10 -3 0 -8 5 -11 10 -3 6 -1 10 4 10 6 0 11
-4 11 -10z m2160 -30 c0 -5 -4 -10 -10 -10 -5 0 -10 5 -10 10 0 6 5 10 10 10
6 0 10 -4 10 -10z m-1983 -246 c-9 -9 -28 6 -21 18 4 6 10 6 17 -1 6 -6 8 -13
4 -17z m441 -13 c-1 -16 3 -35 9 -42 6 -8 13 -39 16 -69 17 -166 77 -335 206
-580 40 -74 82 -155 94 -180 12 -25 30 -54 39 -64 10 -10 15 -23 12 -28 -3 -4
-1 -8 3 -8 5 0 17 -15 28 -32 24 -42 106 -170 116 -182 4 -4 19 10 34 33 15
22 31 38 36 35 5 -3 6 1 4 8 -3 7 1 22 10 33 26 35 60 88 105 168 24 42 48 77
53 77 4 0 6 4 2 9 -3 5 2 17 11 25 8 9 12 16 8 16 -4 0 0 8 8 18 9 9 23 34 33
55 9 20 22 37 27 37 5 0 6 5 2 11 -3 6 -2 14 3 18 12 8 116 257 137 331 9 30
24 98 32 150 20 125 44 198 56 176 6 -11 6 -28 0 -46 -6 -15 -9 -30 -7 -32 2
-1 6 -34 10 -73 4 -38 9 -72 10 -75 2 -3 6 -43 10 -90 4 -47 9 -88 11 -91 2
-3 6 -33 10 -65 3 -32 9 -61 12 -64 4 -3 7 -14 7 -25 0 -12 6 -19 14 -17 11 2
12 0 3 -10 -13 -16 -9 -54 6 -51 6 1 13 -4 16 -12 3 -10 0 -12 -11 -8 -13 5
-15 2 -9 -13 5 -10 10 -34 12 -53 2 -19 8 -39 13 -44 6 -6 8 -2 5 14 -4 18 -3
20 4 10 11 -15 62 -22 62 -9 0 4 -5 8 -11 8 -5 0 -7 5 -4 10 3 6 13 10 21 10
8 0 12 -5 9 -10 -4 -6 0 -22 9 -35 15 -23 15 -24 -1 -19 -16 5 -16 4 -2 -8 28
-23 26 -42 -5 -73 -17 -17 -29 -29 -27 -28 1 1 13 -2 26 -7 22 -8 23 -7 20 21
-3 21 0 29 11 29 8 0 12 -5 9 -11 -4 -6 0 -16 8 -22 8 -7 17 -27 21 -46 5 -28
-3 -48 -50 -130 -31 -53 -53 -85 -49 -72 4 14 3 21 -3 17 -5 -3 -12 -22 -15
-43 -3 -24 -49 -113 -119 -233 -136 -232 -291 -499 -454 -782 -65 -114 -121
-207 -124 -207 -4 0 -94 151 -597 1011 -57 97 -104 187 -105 201 -1 14 -5 24
-9 22 -3 -3 -17 17 -30 43 -13 26 -36 68 -51 93 -22 37 -26 52 -19 70 9 26 10
28 18 59 4 16 9 18 24 9 15 -7 19 -6 19 5 0 9 -6 13 -14 10 -8 -3 -17 -1 -21
5 -3 6 1 11 9 11 9 0 16 5 16 11 0 5 -5 7 -12 3 -7 -4 -8 -3 -4 4 4 6 22 11
41 10 19 -1 38 1 41 5 3 3 -8 5 -25 5 -17 -1 -34 1 -36 4 -8 8 6 39 15 33 4
-3 10 4 13 14 4 15 12 18 41 16 38 -4 56 9 37 28 -9 9 -11 8 -6 -5 5 -13 2
-15 -14 -11 -12 3 -21 9 -21 14 0 5 -6 9 -14 9 -19 0 -29 31 -16 44 8 8 10 7
6 -4 -4 -10 3 -19 19 -27 14 -6 23 -8 20 -3 -3 4 2 10 10 14 8 3 15 1 15 -5 0
-6 5 -7 11 -4 13 9 7 15 -20 20 -12 2 -21 -1 -21 -8 0 -7 -5 -4 -11 6 -6 10
-8 21 -5 24 3 4 6 1 6 -6 0 -8 5 -9 19 -1 14 7 21 6 24 -3 8 -22 21 3 21 42 0
22 4 37 8 35 4 -3 8 2 8 10 0 9 -5 16 -11 16 -5 0 -7 5 -4 10 4 6 1 18 -6 26
-7 8 -8 14 -3 13 24 -4 45 2 41 14 -2 6 -11 12 -19 11 -8 -1 -15 5 -15 12 0
10 5 10 20 2 18 -9 19 -8 13 16 -3 14 -2 26 3 26 9 0 18 79 27 225 7 131 19
215 31 215 2 0 3 -13 1 -29z m631 -115 c15 -8 33 -22 40 -30 12 -14 7 -19 -30
-36 -28 -12 -66 -20 -103 -20 -65 0 -166 27 -166 45 0 6 17 21 38 33 45 26
176 31 221 8z m1023 -82 c14 -31 1 -57 -31 -62 -45 -7 -67 40 -35 72 23 24 53
19 66 -10z m-447 -314 c3 -5 1 -10 -4 -10 -6 0 -11 5 -11 10 0 6 2 10 4 10 3
0 8 -4 11 -10z m18 -27 c-7 -2 -13 -9 -13 -14 0 -6 5 -7 12 -3 7 5 8 3 3 -5
-5 -9 -11 -9 -17 -3 -12 12 -2 32 15 31 9 0 9 -2 0 -6z m-29 -32 c3 -5 -2 -15
-12 -22 -15 -12 -16 -12 -5 2 7 9 10 19 6 22 -3 4 -4 7 0 7 3 0 8 -4 11 -9z
m-1330 -7 c9 -3 16 -11 16 -16 0 -6 -6 -5 -15 2 -8 6 -19 9 -25 5 -5 -3 -10
-1 -10 4 0 12 11 14 34 5z m1371 -23 c-2 -11 3 -25 11 -32 9 -7 12 -20 8 -32
-4 -12 -1 -23 7 -28 12 -7 12 -9 1 -9 -8 0 -22 -10 -33 -22 -15 -19 -18 -20
-19 -6 0 9 7 23 15 32 18 18 20 30 3 20 -9 -6 -9 -3 1 9 11 15 10 18 -13 27
-14 5 -26 12 -26 14 0 3 7 3 15 0 10 -4 15 0 15 13 0 17 8 33 16 33 2 0 1 -9
-1 -19z m-1339 -18 c-10 -11 -36 -12 -36 -2 0 5 10 9 22 9 12 0 18 -3 14 -7z
m1311 -74 c2 -16 -1 -19 -9 -11 -5 5 -7 15 -4 21 10 15 12 14 13 -10z m-1397
-8 c0 -6 -4 -13 -10 -16 -5 -3 -10 1 -10 9 0 9 5 16 10 16 6 0 10 -4 10 -9z"/>
<path d="M3380 7355 c8 -11 15 -21 16 -23 1 -2 5 5 8 15 4 9 4 14 0 10 -4 -4
-14 -1 -23 6 -14 11 -15 10 -1 -8z"/>
<path d="M3355 7310 c-3 -5 -1 -10 4 -10 6 0 11 5 11 10 0 6 -2 10 -4 10 -3 0
-8 -4 -11 -10z"/>
<path d="M3310 7300 c-9 -6 -10 -10 -3 -10 6 0 15 5 18 10 8 12 4 12 -15 0z"/>
<path d="M3300 7276 c0 -2 9 -6 20 -9 11 -3 18 -1 14 4 -5 9 -34 13 -34 5z"/>
<path d="M3210 7244 c0 -8 -4 -13 -9 -9 -5 3 -12 1 -15 -4 -3 -5 1 -11 8 -14
8 -3 17 -1 19 6 3 11 18 13 101 17 25 1 14 11 -18 14 -14 2 -23 -1 -20 -5 7
-12 -9 -11 -40 1 -21 8 -26 6 -26 -6z"/>
<path d="M3226 7213 c-6 -14 -5 -15 5 -6 7 7 10 15 7 18 -3 3 -9 -2 -12 -12z"/>
<path d="M6850 7381 c0 -6 4 -13 10 -16 6 -3 7 1 4 9 -7 18 -14 21 -14 7z"/>
<path d="M6997 7319 c7 -7 15 -10 18 -7 3 3 -2 9 -12 12 -14 6 -15 5 -6 -5z"/>
<path d="M7015 7280 c-3 -5 -1 -10 4 -10 6 0 11 5 11 10 0 6 -2 10 -4 10 -3 0
-8 -4 -11 -10z"/>
<path d="M7006 7245 c-9 -26 -7 -32 5 -12 6 10 9 21 6 23 -2 3 -7 -2 -11 -11z"/>
<path d="M6970 7240 c8 -5 11 -12 7 -16 -3 -4 -13 -1 -22 6 -22 18 -25 8 -4
-12 15 -14 19 -15 29 -3 13 16 5 35 -13 35 -7 0 -6 -4 3 -10z"/>
<path d="M4163 5354 c0 -7 4 -11 9 -8 4 3 11 -2 14 -10 3 -9 10 -16 15 -16 12
0 -12 38 -27 44 -6 2 -11 -2 -11 -10z"/>
<path d="M4150 5271 c0 -6 4 -13 10 -16 6 -3 7 1 4 9 -7 18 -14 21 -14 7z"/>
<path d="M4191 5241 c-6 -11 -7 -22 -2 -25 5 -3 11 4 14 16 8 30 1 35 -12 9z"/>
<path d="M4222 5238 c-14 -14 -15 -47 -3 -67 13 -21 24 5 11 28 -13 25 -13 31
1 31 5 0 8 -4 4 -9 -3 -5 -1 -12 4 -16 6 -3 8 4 6 16 -6 29 -9 31 -23 17z"/>
<path d="M4266 5217 c3 -8 1 -18 -5 -21 -6 -4 -7 -14 -4 -23 4 -11 3 -14 -5
-9 -7 4 -12 2 -12 -3 0 -14 10 -14 30 -1 13 9 13 11 0 20 -10 6 -11 10 -2 10
14 0 16 26 2 35 -5 3 -7 0 -4 -8z"/>
<path d="M6172 5644 c-7 -8 -8 -14 -3 -14 10 0 25 19 20 25 -2 1 -10 -3 -17
-11z"/>
<path d="M6075 5541 c-3 -5 -1 -12 5 -16 5 -3 10 1 10 9 0 18 -6 21 -15 7z"/>
<path d="M4132 5624 c-10 -12 -10 -14 2 -14 17 0 30 16 19 23 -5 3 -14 -1 -21
-9z"/>
<path d="M4200 5601 c0 -6 4 -13 10 -16 6 -3 7 1 4 9 -7 18 -14 21 -14 7z"/>
<path d="M4156 5582 c-8 -13 39 -66 52 -58 7 4 12 12 12 17 0 6 -5 7 -11 4 -6
-4 -19 2 -30 13 -17 19 -17 21 -1 25 16 4 16 5 0 6 -9 0 -19 -3 -22 -7z"/>
<path d="M4235 5540 c3 -5 8 -10 11 -10 2 0 4 5 4 10 0 6 -5 10 -11 10 -5 0
-7 -4 -4 -10z"/>
<path d="M4300 5515 c-7 -9 -11 -17 -9 -20 3 -2 10 5 17 15 14 24 10 26 -8 5z"/>
<path d="M4235 5461 c-6 -11 9 -23 19 -14 9 9 7 23 -3 23 -6 0 -12 -4 -16 -9z"/>
<path d="M6136 5417 c3 -10 9 -15 12 -12 3 3 0 11 -7 18 -10 9 -11 8 -5 -6z"/>
<path d="M6116 5373 c-6 -14 -5 -15 5 -6 7 7 10 15 7 18 -3 3 -9 -2 -12 -12z"/>
<path d="M6065 5300 c-3 -5 -1 -10 4 -10 6 0 11 5 11 10 0 6 -2 10 -4 10 -3 0
-8 -4 -11 -10z"/>
<path d="M6090 5279 c0 -5 5 -7 10 -4 6 3 10 8 10 11 0 2 -4 4 -10 4 -5 0 -10
-5 -10 -11z"/>
<path d="M6050 5271 c0 -5 7 -11 15 -15 8 -3 15 -1 15 3 0 5 -7 11 -15 15 -8
3 -15 1 -15 -3z"/>
<path d="M6000 5161 c0 -25 6 -27 13 -6 4 8 2 17 -3 20 -6 4 -10 -3 -10 -14z"/>
<path d="M4334 5432 c3 -6 0 -12 -6 -15 -10 -3 -10 -9 -2 -23 18 -30 31 -27
30 7 -1 18 -8 35 -15 37 -8 3 -11 0 -7 -6z"/>
<path d="M4363 5383 c4 -3 2 -12 -5 -20 -6 -7 -8 -16 -4 -20 8 -8 36 29 30 39
-3 5 -10 8 -16 8 -6 0 -8 -3 -5 -7z"/>
<path d="M5540 3550 c0 -5 5 -10 11 -10 5 0 7 5 4 10 -3 6 -8 10 -11 10 -2 0
-4 -4 -4 -10z"/>
<path d="M4521 3534 c0 -11 3 -14 6 -6 3 7 2 16 -1 19 -3 4 -6 -2 -5 -13z"/>
<path d="M5420 3289 c0 -5 5 -7 10 -4 6 3 10 8 10 11 0 2 -4 4 -10 4 -5 0 -10
-5 -10 -11z"/>
<path d="M5819 3289 c-11 -7 -10 -9 4 -9 10 0 16 -4 13 -9 -3 -5 2 -15 12 -22
15 -13 16 -12 3 4 -9 11 -10 17 -2 17 6 0 11 4 11 9 0 14 -25 20 -41 10z"/>
<path d="M4451 3281 c-9 -6 -10 -11 -2 -15 6 -4 11 -2 11 4 0 6 5 8 10 5 6 -3
10 -1 10 4 0 13 -10 14 -29 2z"/>
<path d="M5450 3280 c0 -5 5 -10 11 -10 5 0 7 5 4 10 -3 6 -8 10 -11 10 -2 0
-4 -4 -4 -10z"/>
<path d="M4388 3273 c7 -3 16 -2 19 1 4 3 -2 6 -13 5 -11 0 -14 -3 -6 -6z"/>
<path d="M5794 3238 c-5 -7 -3 -8 6 -3 9 6 12 4 8 -7 -4 -8 0 -15 7 -15 10 0
11 5 4 19 -11 21 -15 22 -25 6z"/>
<path d="M4380 3230 c0 -5 5 -10 11 -10 5 0 7 5 4 10 -3 6 -8 10 -11 10 -2 0
-4 -4 -4 -10z"/>
<path d="M5837 3225 c3 -8 9 -12 14 -9 12 7 11 11 -5 17 -10 4 -13 1 -9 -8z"/>
<path d="M4446 3207 c3 -10 9 -15 12 -12 3 3 0 11 -7 18 -10 9 -11 8 -5 -6z"/>
<path d="M4417 3199 c7 -7 15 -10 18 -7 3 3 -2 9 -12 12 -14 6 -15 5 -6 -5z"/>
<path d="M5830 3189 c0 -5 5 -7 10 -4 6 3 10 8 10 11 0 2 -4 4 -10 4 -5 0 -10
-5 -10 -11z"/>
<path d="M4396 3172 c-3 -5 1 -9 9 -9 8 0 15 4 15 9 0 4 -4 8 -9 8 -6 0 -12
-4 -15 -8z"/>
<path d="M4440 3171 c0 -5 5 -13 10 -16 6 -3 10 -2 10 4 0 5 -4 13 -10 16 -5
3 -10 2 -10 -4z"/>
<path d="M4360 3140 c-11 -7 -9 -9 12 -7 15 1 27 -2 27 -8 1 -5 -4 -10 -11
-10 -15 0 -22 -21 -9 -30 7 -4 8 0 4 11 -4 11 -2 15 4 11 6 -4 17 0 24 9 21
25 -19 45 -51 24z"/>
<path d="M5875 3130 c-4 -6 -11 -7 -17 -4 -6 4 -8 2 -5 -4 4 -5 16 -8 27 -5
11 3 17 9 14 14 -7 12 -11 11 -19 -1z"/>
<path d="M5920 3120 c6 -11 13 -20 16 -20 2 0 0 9 -6 20 -6 11 -13 20 -16 20
-2 0 0 -9 6 -20z"/>
<path d="M4435 3090 c3 -5 8 -10 11 -10 2 0 4 5 4 10 0 6 -5 10 -11 10 -5 0
-7 -4 -4 -10z"/>
<path d="M4375 3049 c-3 -4 2 -6 10 -5 21 3 28 13 10 13 -9 0 -18 -4 -20 -8z"/>
<path d="M5847 3039 c7 -7 15 -10 18 -7 3 3 -2 9 -12 12 -14 6 -15 5 -6 -5z"/>
</g>
</svg>
