<?xml version="1.0" encoding="utf-8" ?>
<svg xmlns="http://www.w3.org/2000/svg" xmlns:xlink="http://www.w3.org/1999/xlink" width="512" height="512">
	<path fill="white" transform="scale(0.666667 0.666667)" d="M-0 -0L768 0L768 768L-0 768L0 -0Z"/>
	<path transform="scale(0.666667 0.666667)" d="M330.857 402.76C333.292 403.302 335.802 404.093 338.294 404.242C342.843 404.514 348.184 403.078 352.491 404.866C354.326 405.628 356.371 407.36 357.054 409.279C357.972 411.86 356.951 414.156 355.867 416.464C355.274 417.214 354.706 417.724 353.966 418.312C347.698 419.623 345.082 411.864 341.25 408.776C338.253 406.361 334.185 404.784 330.857 402.76Z"/>
	<path transform="scale(0.666667 0.666667)" d="M416.905 403.966C423.21 403.677 429.26 404.559 435.61 403.853C432.291 405.91 428.896 406.374 425.584 408.066C423.704 409.027 423.269 411.115 422.616 412.97C421.104 415.061 419.529 416.812 417 417.656C415.437 418.178 413.91 418.081 412.479 417.253C410.804 416.284 409.423 414.246 408.947 412.393C408.567 410.911 408.84 409.408 409.694 408.137C411.456 405.514 414.002 404.662 416.905 403.966Z"/>
	<path transform="scale(0.666667 0.666667)" d="M382.346 446.795C386.698 446.716 393 445.945 397.139 447.242C398.284 447.601 398.759 448.354 399.265 449.383C400.267 451.423 401.397 453.368 403.017 454.988C404.47 456.442 406.153 457.499 407.371 459.188C407.411 460.303 407.344 460.325 406.688 461.243C402.863 460.834 399.209 460.011 395.307 460.262C392.527 460.441 390.819 461.715 389.074 463.826C387.366 465.891 386.349 468.374 386.647 471.061C387.084 475.004 389.388 478.988 392.55 481.363C394.837 483.08 397.554 483.422 400.312 482.928C404.376 482.2 405.878 478.76 406.769 475.19C407.084 473.929 407.244 472.388 408 471.313L408.657 471.562C408.719 472.189 408.794 472.808 408.721 473.438C408.358 476.556 406.861 479.508 404.487 481.555C399.431 485.913 392.563 485.644 386.367 485.315L370.976 485.797C366.168 483.14 360.502 480.567 358.82 474.846C358.451 473.59 358.373 472.631 358.963 471.483L359.661 471.562C361.071 473.435 360.561 476.06 361.628 478.124C362.832 480.452 366.06 482.474 368.51 483.208C370.433 483.784 371.918 483.415 373.615 482.391C376.99 480.355 379.857 476.625 380.733 472.761C381.417 469.742 380.765 466.57 379.09 463.971C375.593 458.545 371.176 459.905 365.704 460.779C364.573 460.96 363.189 461.337 362.061 461.039C361.299 460.838 361.44 460.757 361.096 460.125C361.744 457.862 364.409 456.519 365.735 454.598C366.939 452.854 367.51 450.767 369.021 449.189C371.9 446.182 378.473 446.898 382.346 446.795Z"/>
	<path transform="scale(0.666667 0.666667)" d="M381.909 31.3125C382.233 31.2757 382.559 31.1496 382.88 31.202C383.526 31.3071 385.524 32.9323 386.204 33.3628L408.923 48.5441L430.625 62.777L473.728 90.2549L545.773 137.062L567.548 151.395L585.143 162.764C588.502 150.636 590.401 138.71 588.567 126.147C587.949 121.912 586.755 117.839 585.562 113.74C590.358 119.875 593.673 125.882 595.621 133.478C598.511 144.75 596.149 156.792 592.026 167.411C590.803 170.56 589.581 173.706 587.847 176.615C580.59 173.658 573.775 169.235 567.178 165.024L543.664 149.713L491.771 115.976L389.336 50.2871L381.568 45.6149L347.041 68.5831L321.76 85.4732L236.353 142.449L209.014 161.147C201.147 166.574 193.794 171.975 185.038 175.968C182.903 171.964 181.682 167.784 181.003 163.312C180.466 159.779 180.555 155.765 180.918 152.203C182.318 138.457 190.863 125.391 201.445 116.806C200.124 119.753 197.895 122.216 196.491 125.163C191.043 136.603 190.152 148.375 190.558 160.813C200.525 152.404 211.671 145.671 222.327 138.219L300.673 85.3272L362.463 44.027C368.904 39.8689 375.236 35.0188 381.909 31.3125Z"/>
	<path transform="scale(0.666667 0.666667)" d="M381.747 56.4762L582.01 187.865L574.789 199.627C572.817 198.364 571.135 196.228 569.311 194.68L558.309 185.769C554.024 182.348 549.616 178.782 544.468 176.79C546.026 179.957 548.076 182.752 549.976 185.714L557.475 197.873L563.007 207.41C563.997 209.18 564.94 211.264 566.215 212.833L566.672 213.38C565.722 215.949 563.706 218.482 562.218 220.803L554.678 232.524C554.349 232.989 553.482 234.218 553.009 234.426C551.388 235.142 548.642 235.336 546.877 235.631L530.974 238.051L510.681 241.453C510.439 228.206 508.851 214.59 506.956 201.481C506.334 197.177 505.958 192.392 504.562 188.275C503.567 185.339 501.427 182.413 499.856 179.714C493.926 169.523 487.947 159.257 480.534 150.049C477.672 146.495 465.145 131.798 461.438 131.405C461.38 131.666 461.197 131.929 461.266 132.188C461.79 134.167 463.913 136.993 464.899 138.94L470.017 150.373C474.703 162.152 477.897 174.719 480.778 187.048C485.472 207.142 488.889 227.161 491.27 247.662L492.301 257.954C492.489 260.1 492.902 262.413 492.003 264.431L488.966 271.948C480.62 291.632 469.807 310.036 453.603 324.349C448.154 329.161 441.824 333.777 435.054 336.506C436.007 334.823 436.748 333.138 437.375 331.312C440.129 323.302 439.819 314.087 439.219 305.727C438.157 290.93 435.573 276.223 430.905 262.125C429.672 258.404 428.34 254.18 426.527 250.696C426.055 249.788 425.993 249.78 425.062 249.479C423.636 250.062 423.998 250.943 424.135 252.344C425.424 265.562 426.113 278.677 425.518 291.963C424.692 310.384 420.846 326.176 410.724 341.788C406.276 348.65 401.728 354.874 398.305 362.36L369.624 362.719C365.456 355.154 359.466 349.038 354.587 341.947C350.358 335.534 346.226 328.252 344.039 320.852C340.175 307.778 341.134 292.611 343.893 279.407C345.267 272.833 347.145 266.148 349.566 259.89C350.73 256.88 352.272 253.996 353.288 250.936C353.584 250.043 353.642 250.039 353.313 249.188L352.512 249.1C350.554 250.745 349.14 253.1 347.677 255.179C342.273 262.856 337.961 271.288 334.826 280.139C331.392 289.835 329.113 300.438 328.368 310.688C327.678 320.18 327.885 328.836 332.023 337.584C325.523 333.724 318.867 329.949 312.75 325.502C296.977 314.035 285.187 299.37 276.162 282.159L267.174 263.201C270.24 240.978 276.747 218.919 282.899 197.379C286.461 184.906 289.595 172.447 294.149 160.274L301.63 142.65C303.402 138.942 305.442 135.464 306.87 131.596L303.624 133.587C301.239 135.285 299.088 137.447 296.888 139.381C291.082 144.485 285.507 149.991 280.859 156.188C276.054 162.595 272.303 169.515 268.578 176.573C267.014 179.538 264.916 182.5 263.736 185.625C262.705 188.352 262.176 191.37 261.559 194.211L258.51 209.27L252.537 240.172L229.033 236.393C227.871 229.437 223.264 223.217 221.821 216.268C219.521 205.187 224.637 192.908 230.188 183.602C231.85 180.816 234.45 177.789 235.364 174.695C235.524 174.153 235.476 174.426 235.092 173.713L234.375 173.702C231.366 175.125 228.742 177.583 226.28 179.781C215.328 189.56 206.649 201.374 199.955 214.41C197.371 219.443 195.764 225.733 192.711 230.393C188.077 225.109 185.543 217.186 182.696 210.76C180.602 206.033 178.252 201.407 176.405 196.577L381.747 56.4762Z"/>
	<path transform="scale(0.666667 0.666667)" d="M597.439 21.1577C602.996 23.6082 608.191 25.8194 613.33 29.1326C626.987 37.9367 637.934 51.0335 646.205 64.8621C648.547 68.7783 650.897 72.7268 652.767 76.8946C664.12 102.201 665.962 131.504 660.162 158.45C658.085 168.099 654.909 177.304 651.379 186.503C661.733 191.544 671.732 198.542 681.341 204.869C691.356 211.463 701.536 217.875 711.089 225.132C710.133 228.307 708.604 231.251 707.174 234.232L699.912 248.779L675.217 295.501L620.241 398.021L575.513 477.53L552.113 518.462C548.072 525.725 544.89 533.48 540.071 540.284L511.935 577.1L499.681 595.035L471.562 635.219L429.36 697.125L418.952 712.844C416.344 716.597 413.082 720.381 411.212 724.539L411.026 724.969L358.168 724.84C355.595 718.683 350.81 712.859 347.014 707.367L323.991 674.625L310.529 654.888L287.685 623.407C280.401 613.192 273.403 602.702 265.412 593.018C259.408 585.743 252.895 578.933 246.333 572.166C242.18 567.883 237.147 563.673 233.902 558.669C231.104 554.353 229.536 549.072 227.526 544.354C225.648 539.943 223.381 535.736 221.128 531.509L201.789 496.5L173.603 442.974L132.97 369.471L93.0727 296.521L56.0468 225.241C58.8478 224.099 61.3534 222.196 63.8554 220.52L75.4641 212.758L116.308 186.502L113.993 181.637C100.631 148.853 103.062 110.559 116.76 78.2684C126.126 56.1908 144.595 35.0795 167.035 26.0114C162.818 31.1425 158.841 35.9888 155.341 41.6713C151.466 47.9635 148.356 54.9636 145.643 61.8222C139.172 78.183 135.326 94.9775 133.195 112.407L132.519 125.692C132.188 147.883 138.369 170.432 149.1 189.785C156.75 203.582 167.339 216.824 178.31 228.146L145.396 223.334C148.926 227.867 151.716 232.96 154.648 237.887C160.169 247.168 165.505 256.715 171.683 265.576C173.782 268.587 175.934 271.935 178.498 274.56C180.711 276.827 184.689 278.473 187.476 280.035L212.49 293.552L233.984 305.338L297.402 339.178L328.931 357.128C334.442 360.42 339.623 364.254 345.374 367.136C350.024 369.466 353.954 370.519 359.142 370.501C357.12 374.124 354.652 377.654 351.388 380.27C346.214 384.418 338.805 387.032 332.856 389.975C332.466 388.542 332.947 386.585 332.036 385.32C329.636 381.991 325.948 378.915 323.123 375.875C319.529 372.007 315.939 367.11 311.588 364.157C305.915 360.307 297.597 359.691 290.984 358.319C285.211 357.121 279.528 355.679 273.663 354.997L274.426 369.6C274.669 373.31 274.779 377.211 276.175 380.708C278.46 386.429 283.133 391.877 286.838 396.773C289.751 400.622 293.034 404.03 296.37 407.507C297.071 408.238 298.216 409.83 299.045 410.325C299.609 410.663 302.704 410.431 303.537 410.436L321.433 410.556C324.884 410.597 329.815 410.207 332.947 411.743C334.658 412.582 335.617 413.914 336.205 415.695C337.111 418.439 337.16 421.422 337.273 424.285C337.477 429.422 337.314 434.473 337.074 439.603C336.706 447.465 336.488 455.45 335.534 463.263C331.823 493.673 322.011 524.978 307.923 552.193L384.111 644.751C385.72 643.919 387.928 640.57 389.17 639.122L404.243 621.534L435.936 585.292L460.524 557.845C464.106 553.626 467.792 549.461 471.027 544.965L450.409 503.817C444.742 489.867 439.785 475.488 436.047 460.901C434.565 455.117 432.939 449.05 432.501 443.086C432.091 437.508 433.003 431.301 433.361 425.688C433.619 421.65 433.495 415.415 435.036 411.754C438.435 409.741 444.054 409.977 447.917 409.868L470.858 409.573C475.872 404.104 481.038 398.772 485.707 392.999C488.524 389.514 491.791 385.423 492.722 380.942C493.412 377.623 493.327 373.956 493.424 370.571L493.964 354.591C490.128 354.884 486.251 355.806 482.463 356.496C473.861 358.062 464.071 359.179 456.938 364.671C452.937 367.751 449.897 372.02 446.315 375.568C443.103 378.749 438.374 381.576 436.001 385.38C434.886 387.166 434.675 389.213 434.404 391.251C430.231 387.111 426.087 386.483 420.961 384.166C415.516 381.705 411.079 376.425 408.972 370.919C413.631 370.913 417.888 370.589 422.262 368.866C428.859 366.267 434.524 361.079 440.418 357.208L463.63 343.278L502.055 322.911L554.571 294.242L572.134 284.959C576.144 282.893 582.323 280.531 585.423 277.302C587.843 274.781 589.648 270.693 591.418 267.627C599.283 254 607.198 239.754 613.377 225.286C609.504 225.377 605.739 226.173 601.936 226.829L587.746 229.122L589.667 227.335C594.781 222.18 599.385 215.676 603.757 209.854C613.126 197.381 621.671 184.08 627.563 169.575C633.51 154.935 636.706 138.406 636.765 122.616C636.839 102.679 632.319 84.8364 625.228 66.3539C620.538 54.1307 614.578 41.7137 606.652 31.2501C603.902 27.6194 600.641 24.3866 597.439 21.1577Z"/>
	<path fill="white" transform="scale(0.666667 0.666667)" d="M349.04 670.103C351.111 672.335 352.667 675.036 354.315 677.586L363.037 691.829C365.302 695.733 367.912 699.652 369.748 703.764L369.947 704.22C373.402 704.688 376.979 704.516 380.465 704.513L398.344 704.34C399.751 703.045 400.804 700.433 401.726 698.739L408.987 685.492C411.85 680.512 415.039 675.378 418.515 670.801C419.429 671.529 420.817 672.367 421.168 673.5L420.442 674.838L400.95 707.292L367.652 707.242C367.404 707.192 367.127 707.174 366.925 707.021C365.872 706.225 364.231 702.664 363.461 701.415L346.456 673.188C347.224 672.087 348.153 671.11 349.04 670.103Z"/>
	<path fill="white" transform="scale(0.666667 0.666667)" d="M129.905 208.063C132.248 209.956 134.273 212.186 136.343 214.366L90.5712 244.522C93.0345 250.921 96.6084 257.019 99.7941 263.082L111.293 285.215L147.901 353.936L215.197 477.98L236.888 518.549L248.938 540.789C252.052 545.927 256.537 550.316 260.413 554.892C264.903 560.193 269.166 565.8 273.102 571.522L317.251 641.625L317.062 642.093L316.083 640.678L300.416 616.823L270.758 572.316C266.8 566.83 262.646 561.512 258.09 556.508C254.374 552.426 249.597 548.435 246.664 543.765L241.522 534.612L218.133 496.933L182.371 431.312L133.084 340.875L100.328 279.917L87.2599 254.386C85.0398 249.957 82.6045 245.7 80.6989 241.115C80.8993 240.406 125.618 210.758 129.905 208.063Z"/>
	<path fill="white" transform="scale(0.666667 0.666667)" d="M635.372 207.591L688.685 241.07L450.435 644.214C449.613 645.298 448.807 646.572 447.776 647.463C447.922 645.087 451.713 640.652 453.065 638.625L465.054 620.022L503.707 555.811L526.553 524.075C533.689 513.926 538.698 502.907 544.614 492.076L574.753 437.136L598.413 394.596L640.14 316.779L678.461 244.531L629.673 213.946L635.372 207.591Z"/>
</svg>
